<svg xmlns="http://www.w3.org/2000/svg" viewBox="0 0 150 91.5">
<!-- SVG created with Arrow, by QuiverAI (https://quiver.ai) -->
  <style type="text/css">.cls-0 {fill:none;}
.cls-1 {display:none;}
.cls-2 {fill:#010101;}
.cls-3 {fill:#FBDC13;}
.cls-4 {fill:#FBDA00;}
.cls-5 {fill:none;stroke:#F9E014;stroke-width:1.5;}</style>
  <rect class="cls-0" width="150" height="91.5"/>
  <path class="cls-1" d="m132.4 11.6h-107.5c-2.9 0-6.9 3.4-6.9 7.3v16.1"/>
  <path class="cls-1" d="m20.8 35.1c1.6 0 2.2-0.7 2.2-2.1v-11.9c0-2.1 0.9-3.3 4.4-3.3h100.6c1.8 0 4.4 0.4 4.4 2.9v47.9l-73.1-0.1-1.7 4.3h71.4c1.2 0 3.2-0.1 3.2 1 0 2.4-2.4 4.4-3.6 4.4h-72.8l-3.8 3.7 1.3 2.5h76.1c3.5 0 9.4-3.9 9.4-9.1l0.3-58.5c-0.1-2.8-3.2-5.2-6.7-5.2z"/>
  <path class="cls-1" d="m32.3 59.7v-9.4l-1.9-1.7h-2.8l-1.3 1.7v9.8h-12.5l-1.8 2.5 0.1 4.4 2.2 1.6h11.7v12.7l1.9 2h2.7l2.5-1.5 0.1-12.5 11.3-0.3 1.9-1.8-0.4-5.3-1.7-2.1-10.7-0.2"/>
  <path class="cls-2" d="m23.9 13.5c-2.5 0-3.9 2.7-3.9 5.2v15.9h2.1l0.2-14c0-2.2 1.5-3.4 3.9-3.4h101.4l1.8-3.7h-105.5z"/>
  <path class="cls-2" d="m127.2 17.2c1.4 0 3.6 0.3 3.6 2.6l2.5 1.1v48.1h-74.3l-1.2 4.7h74.7c0.6 2.1-2.4 5.8-4.1 5.8h-72.4l-3.2 3.9 2.7 0.1 72.6-0.2c4.1 0 8.8-3.1 9-8.1l0.3-58.1-1.3-1.4-2.7 3.7-2.5-0.1"/>
  <path class="cls-2" d="m31.3 50.1-1.5-0.8-2.7 0.3-0.3 12.7h-12.7l-0.5 1.5 0.1 2.8 2 0.4 11.1 0.1 0.1 12.8 1.5 1.5h1.9l1.1-1.5-0.1-12.8h12.5l0.9-0.5v-4l-0.9-0.3h-12.5v-12.2z"/>
  <path class="cls-3" d="m76.5 34.5c-6.1 0-11.8 4.9-11.8 11.2 0 6.5 5.4 11.9 11.8 11.9 6.3 0 12.2-5.2 12.2-11.7 0-6-5.2-11.4-12.2-11.4z"/>
  <path class="cls-4" d="m76.5 36.6c-5 0-9.1 3.7-9.1 9.1s3.5 9.1 9.1 9.1c5.3 0 9.8-3.2 9.8-8.9 0-5.5-4.2-9.3-9.8-9.3z"/>
  <path class="cls-3" d="m132.7 10.4c-3.2-0.3-5.8 2.4-5.5 5.7 0.2 2.5 1.8 4.6 5.2 4.5 2.7-0.1 6-1.7 6.1-4.5 0.1-3.4-2.8-5.5-5.8-5.7z"/>
  <path class="cls-5" d="m129.4 14.4c-0.4 0.7-1.1 2.7 1.2 3.7 1.6 0.7 3.7-0.4 4.2-1.2"/>
</svg>