<svg xmlns="http://www.w3.org/2000/svg" viewBox="0 0 100 72">
<!-- SVG created with Arrow, by QuiverAI (https://quiver.ai) -->
  <style type="text/css">.cls-0 {fill:none;}
.cls-1 {fill:#000000;}
.cls-2 {fill:#FDE10C;}
.cls-3 {fill:#020203;}</style>
  <rect class="cls-0" width="100" height="72"/>
  <path class="cls-1" d="m95.9 12.1-2.7-5.6-2.9-2.9-2.3 1.3-7.1 4.8c-0.8 0.5-1.2 1.6-0.7 2.5 0.7 1.1 1.8 1.3 2.5 0.8l4.8-2.4-2.8 7.2c-5.9 12.9-21.1 28.7-48.7 33.9-4 0.8-8.9 1.3-13.4 1.4l0.3 3.3c4.6-0.1 9.5-0.6 13.8-1.4 26.2-4.9 43.2-18 50.8-33.8l2.9-9.7 2.6 3.6c0.5 0.8 1.7 1 2.5 0.5 0.8-0.6 0.9-2.4 0.4-3.5z"/>
  <path class="cls-2" d="m13 44.5c-4.8 0-9.2 3.6-9.2 9.9 0 5.1 3.5 9.9 9.2 9.9 5.1 0 9.9-3.4 10.1-9.9 0.1-5.1-4-9.9-10.1-9.9z"/>
  <path class="cls-3" d="m29.4 61.3v6.7h3.3v-6.9l-3.3 0.2z"/>
  <path class="cls-1" d="m48.5 56.8v11.2h3.3v-12l-1.3-0.1-2 0.9z"/>
  <path class="cls-1" d="m67.9 47.2v20.8h3.5v-22.1l-3.5 1.3z"/>
  <path class="cls-1" d="m89 24.1-1.5 0.1-0.5 0.5c-0.3 0.5 0.1 0.4 0 1.8v41.5h4v-41.5c0.1-1.4-0.8-2.4-2-2.4z"/>
  <path class="cls-1" d="m89.8 24.3"/>
</svg>