<svg xmlns="http://www.w3.org/2000/svg" viewBox="0 0 100 84">
<!-- SVG created with Arrow, by QuiverAI (https://quiver.ai) -->
  <style type="text/css">.cls-0 {fill:none;}
.cls-1 {display:none;}
.cls-2 {fill:none;stroke:none;stroke-width:1.25;stroke-miterlimit:10;}
.cls-3 {fill:#FFDC0F;stroke:#D3C72A;stroke-width:1.25;stroke-miterlimit:10;}
.cls-4 {fill:none;stroke:#020202;stroke-width:2.75;stroke-linecap:round;stroke-linejoin:round;stroke-miterlimit:10;}
.cls-5 {fill:none;stroke:#020202;stroke-width:2.75;stroke-linecap:round;stroke-linejoin:round;}</style>
  <rect class="cls-0" width="100" height="84"/>
  <path class="cls-1" d="m23.4 77.6c-12.7-1.4-21.6-13.4-19.9-27.5 0.8-6.5 9.8-19.3 9.8-23.5l-3-10.7 2.3-5.1 3.4-1.4 4.5 2.3 4.6-2.3 4.6 1.7 5.3-2 4.4 2 4.5-2.1 4.9 2.6 1.6 4.3-4.6 10.7 9.3 20.4c3.2 14.6-4.3 30.6-17.9 30.6h-13.8z"/>
  <path class="cls-2" d="m42.4 26.5 3.4-7.9 0.2-4.3-2.2-1.1-3.4 2.6h-2.4l-3-2.5-4 2.5h-2.7l-3.2-2.5-4 2.3h-2l-3.7-2.3-2 1 5.1 12.2-11.2 22.2-0.3 5.6 0.6 5.6c1.6 5.8 7.2 13.6 15.2 13.8h15.1c6.5 0 11.9-4.9 14.1-12.6l0.4-6.7-0.5-5.7-9.5-20v-2.2z"/>
  <path class="cls-3" d="m41 53.8c0 5.6-4.4 11.8-11 11.8s-11.8-5.5-11.8-11.8 5.2-11.1 11.4-11.1c6.3 0 11.4 4.2 11.4 11.1z"/>
  <path class="cls-1" d="m79.9 15.4-2.5-0.4-3.7 2 0.4 2.6 3.3 2.6h-14.5l-3.9 3.3-0.4 1.8 4.2 3.3h15.6l-4.6 4.6 0.6 2.2 3.6 2.4 1.9-0.6 10.9-11 0.2-2.7-11.1-10.1z"/>
  <path class="cls-1" d="m69.8 46.8-9.8 9.7-0.9 1.9 11.1 11.5 2.5 1.1 3.3-1.4 0.5-3-3.6-3.6h14.2l3.9-3-0.6-3.5-3.3-2-14.2-0.6 3.1-2.5 0.1-3-2.4-2.5h-2.9z"/>
  <path class="cls-4" d="m40.9 26.6h-21.8l-5.5-10.9 1.8-2.4 3.7 2.3h2.5l3.5-2.3 3.2 2.5h2.7l3.5-2.5 3.4 2.5h2.8l3.1-2.5 2.2 1 0.3 1.9-4.8 10.4 10.4 22.1 0.4 4.5-0.3 6.1c-1.6 6.1-6.1 10.9-11.4 12.6l-1.6 1.5h-17.9l-1.4-1.1c-5.6-1.2-9.9-5.6-12.1-12.1l-0.6-5.9 0.3-5.6 9.2-18.8"/>
  <path class="cls-4" d="m16.6 29.4 1.3-1.8v-2.8"/>
  <path class="cls-4" d="m42.6 25.3v2.9l1 1.1"/>
  <path class="cls-5" d="m63.8 26.8h22.7l-8.9-8.9"/>
  <path class="cls-5" d="m77.6 35.9 9.4-9.1"/>
  <path class="cls-5" d="m86.8 58.3h-22.8l8.4-8.7"/>
  <path class="cls-5" d="m72.4 67.5-9.2-9.4"/>
</svg>